<?xml version="1.0" encoding="UTF-8"?>
<svg version="1.1" viewBox="0 0 957 1045" xmlns="http://www.w3.org/2000/svg">
 <path d="m0 0h437.59c-3.58 0.67-7.15 1.41-10.75 1.96-34.07 3.76-67.77 11.51-99.66 24.16-40.47 15.73-77.74 38.94-111.16 66.53-20.89-11.74-43.45-20.12-66.08-27.8-14-9.04-29.42-15.59-45.07-21.21-20.71-7.32-42.06-13.07-63.89-15.84-7.29-0.68-14.65-0.82-21.95-0.36-4.52 0.52-9.39 1.58-12.8 4.81-2.64 2.53-3.82 6.08-4.72 9.52-0.38 0.64-1.13 1.91-1.51 2.55v-44.32z" fill="#fff"/>
 <path d="m437.59 0h16.72c-9.16 0.55-18.3 1.43-27.47 1.96 3.6-0.55 7.17-1.29 10.75-1.96z" fill="#ffdfd3"/>
 <path d="m454.31 0h54.43c42.27 1.92 84.42 9.86 123.93 25.2 38.84 14.83 74.87 36.48 107.29 62.41 20.49-10.51 42.23-18.26 64.02-25.55 21.99-6.44 44.3-12.05 67.04-15.06 12.12-1.3 24.47-2.5 36.57-0.32 5.78 1.12 12.02 3.02 15.76 7.88 4.65 6.09 5.6 14.02 5.94 21.43-0.74 29.29-11.47 56.95-21.17 84.2-3.93 7.85-6.97 16.11-10.76 24.03-7.38 15.59-14.91 31.19-24.43 45.61-1.12 1.26-0.66 2.76 0.38 3.89 20.69 28.55 40.34 57.82 59.76 87.25 9.06 13.09 16.64 27.4 20.48 42.94 5.13 18.95 3.82 39.2-2.11 57.81-0.21 0.46-0.61 1.38-0.81 1.84-2.92 0.51-5.82 1.05-8.71 1.61-0.46-0.43-1.37-1.28-1.82-1.71-35.45 6.16-69.63 17.68-104.1 27.69-44.94 13.48-89.91 26.95-135.48 38.18-73.75 18.17-149.29 31.54-225.48 31.05-49.34 0.24-98.55-5.53-147.02-14.49-67.4-12.27-133.33-31.23-198.89-50.87-26.06-7.79-52.05-15.8-78.29-22.94-13.08-3.53-26.31-6.51-39.67-8.83-5.92-18.39-7.61-38.33-3.07-57.22 3.46-14.56 9.84-28.35 18.2-40.73 18.77-28.76 38.17-57.12 57.84-85.27-6.9-5.41-11.12-13.25-15.5-20.67-8.84-15.66-16.55-31.93-23.71-48.42-2.12-4.72-3.73-9.66-6.11-14.27-4.75-13.49-9.69-26.95-13.29-40.81-3.86-14.55-7.03-29.6-5.79-44.74 0.91-7.95 4-16.78 11.76-20.42 9.49-4.26 20.21-4.38 30.43-4.05 30.02 1.84 59.37 9.35 88.01 18.2 22.63 7.68 45.19 16.06 66.08 27.8 33.42-27.59 70.69-50.8 111.16-66.53 31.89-12.65 65.59-20.4 99.66-24.16 9.17-0.53 18.31-1.41 27.47-1.96z" fill="#ff6932"/>
 <path d="m508.74 0h448.26v1045h-957v-989.69c1.81 8.01 2.3 16.45 5.82 23.99 7.55 25.82 18.45 50.58 31.43 74.11-0.12 1.34 0.35 2.62 1.57 3.26 2.38 4.61 3.99 9.55 6.11 14.27 7.16 16.49 14.87 32.76 23.71 48.42 4.38 7.42 8.6 15.26 15.5 20.67-19.67 28.15-39.07 56.51-57.84 85.27-8.36 12.38-14.74 26.17-18.2 40.73-4.54 18.89-2.85 38.83 3.07 57.22 1.57 6.38 4.58 12.25 7.42 18.12 11.15 21.43 27.05 40.03 44.73 56.33 27.73 25.35 59.61 45.75 92.74 63.29 53.93 28.29 111.62 49.08 170.63 63.9-2.62 7.74-5.3 15.45-7.71 23.26-13.75 2.44-24.02 12.9-32.94 22.88-12.33 14.94-22.26 31.81-29.85 49.62-20.32-4.92-41.84-1.39-60.73 7.03-15.88 7.93-27.25 21.99-40.89 32.93-11.29 9.23-25.13 16.13-39.91 16.8-13.93-4.05-26.79-11.69-37-22-13.88-13.62-22.5-32.19-24.9-51.42-0.57-2.52-0.4-5.74-2.75-7.36-3.29-0.01-3.78 3.79-4.34 6.23-5.21 25.08-8.66 50.55-9.89 76.14-0.41 18.96-0.45 38.75 7.41 56.41 4.65 14.44 13.25 27.77 25.18 37.24 15.88 13.39 35.72 20.8 55.52 26.23 37.9 11.07 79.98 10 116.27-6.19-2.71 6.23-5.67 12.51-6.39 19.37-1.15 10.66-0.12 22.53 7.11 31.02 7.26 9.53 18.88 14.71 30.49 16.42 16.12 2.21 32.49-2.58 46.32-10.75 11.86-7.42 22.87-17.23 28.9-30.07 2.08-4.23 4.08-8.5 5.42-13.02 5.68-10.55 11.16-21.24 15.39-32.46 0.22-0.57 0.66-1.7 0.88-2.27 9.38 3.04 18.51 6.93 28.18 9.07-1.15 11.11-1.78 22.41-5.04 33.16-5.09 16.19-13.86 30.86-21.43 45.96-6.17 11.52-11.78 23.75-13.16 36.89-1.21 13.24 2.53 27.48 11.92 37.2 8.11 7.51 19.39 10.69 30.24 11 14.79-0.26 29.06-6.55 40.28-15.98 10.14-8.1 18.01-18.79 23.48-30.5 4.5-9.03 4.84-19.3 6.38-29.08 3.5-15.36 5.96-30.99 6.51-46.76 0.24-10.79 0.27-21.59-0.26-32.37 9.4 0.01 18.77-0.71 28.15-1.26-1.52 26.29-0.14 52.91 6.23 78.55 1.42 8.78 1.77 17.88 5.18 26.2 4.25 10.59 11.05 19.99 18.96 28.15 9.81 9.33 21.71 17.06 35.18 19.67 14.36 3.17 30.69 0.01 41.61-10.2 5.57-5.89 8.71-13.74 10.59-21.53 3.65-17.89-3.42-35.92-12.22-51.21-8.69-17.57-19.41-34.58-23.56-53.97-1.76-10.94-3.12-21.97-3.44-33.04 6.03-2.47 12.08-4.92 17.96-7.74 0.24 0.11 0.73 0.35 0.98 0.46 4.65 13.08 10.7 25.62 17.6 37.65 2.91 6.66 5.92 13.32 9.64 19.57 9.19 13.29 22.69 23.34 37.62 29.36 10.94 4.18 22.95 6.46 34.62 4.46 11.92-1.62 23.26-7.95 30.66-17.48 6.48-8.6 7.38-20.04 6.14-30.39-2.78-17.07-14.11-31.23-26.28-42.85-7.84-7.46-15.01-15.58-22.48-23.4-1.55-1.55-2.8-3.35-3.79-5.29 11.73-8.16 21.14-19.4 27.68-32.07 6.94-13.88 9.75-29.84 7.56-45.23-2.42-16.62-8.19-32.57-15.24-47.74-7.93-16.78-17.85-32.74-30.31-46.54-6.66-6.95-14.11-13.66-23.26-17.06-1.02-0.37-2.03-0.73-3.04-1.08-2.64-7.11-5.15-14.27-7.75-21.39 3.45-1.32 7.03-2.26 10.63-3.13 39.94-10.72 79.1-24.39 116.93-41.09 29.6-13.36 58.57-28.33 85.54-46.49 22.99-15.07 44.65-32.41 63.18-52.79 12.38-13.46 22.98-28.66 30.74-45.25 1.86-4.37 4.38-8.74 4.05-13.65 5.93-18.61 7.24-38.86 2.11-57.81-3.84-15.54-11.42-29.85-20.48-42.94-19.42-29.43-39.07-58.7-59.76-87.25-1.04-1.13-1.5-2.63-0.38-3.89 9.52-14.42 17.05-30.02 24.43-45.61 3.79-7.92 6.83-16.18 10.76-24.03 9.57-14.96 17.07-31.14 23.98-47.46 7.12-17.66 13.6-35.81 16.21-54.75 0.52-8.2 1.53-17.53-3.74-24.51-4.96-5.99-13.45-5.94-20.55-6.56-15.89 0.1-31.6 3.17-47 6.94-25.28 6.6-50.29 15.2-73.04 28.21-21.79 7.29-43.53 15.04-64.02 25.55-32.42-25.93-68.45-47.58-107.29-62.41-39.51-15.34-81.66-23.28-123.93-25.2z" fill="#fff"/>
 <path d="m877.02 33.85c15.4-3.77 31.11-6.84 47-6.94 7.1 0.62 15.59 0.57 20.55 6.56 5.27 6.98 4.26 16.31 3.74 24.51-2.61 18.94-9.09 37.09-16.21 54.75-6.91 16.32-14.41 32.5-23.98 47.46 9.7-27.25 20.43-54.91 21.17-84.2-0.34-7.41-1.29-15.34-5.94-21.43-3.74-4.86-9.98-6.76-15.76-7.88-12.1-2.18-24.45-0.98-36.57 0.32-22.74 3.01-45.05 8.62-67.04 15.06 22.75-13.01 47.76-21.61 73.04-28.21z" fill="#583d00"/>
 <path d="m6.23 32.25c3.41-3.23 8.28-4.29 12.8-4.81 7.3-0.46 14.66-0.32 21.95 0.36 21.83 2.77 43.18 8.52 63.89 15.84 15.65 5.62 31.07 12.17 45.07 21.21-28.64-8.85-57.99-16.36-88.01-18.2-10.22-0.33-20.94-0.21-30.43 4.05-7.76 3.64-10.85 12.47-11.76 20.42-1.24 15.14 1.93 30.19 5.79 44.74 3.6 13.86 8.54 27.32 13.29 40.81-1.22-0.64-1.69-1.92-1.57-3.26-12.98-23.53-23.88-48.29-31.43-74.11-2.8-12.3-5.71-24.81-4.31-37.53 0.9-3.44 2.08-6.99 4.72-9.52z" fill="#583d00"/>
 <path d="m1.51 41.77c-1.4 12.72 1.51 25.23 4.31 37.53-3.52-7.54-4.01-15.98-5.82-23.99v-10.99c0.38-0.64 1.13-1.91 1.51-2.55z" fill="#d5cebf"/>
 <path d="m842.5 94.76c7.84-0.58 16.26-1.55 23.58 2.01 5.81 2.67 10.85 8.49 10.44 15.23-0.48 10.49-5.66 19.95-10.79 28.84-4.62 7.93-9.86 15.48-14.51 23.39-4.08 6.61-8.79 13.24-15.71 17.13-1.09 0.83-2.4 0.34-3.04-0.74-15.89-19.34-32.69-37.94-50.43-55.6-1.19-0.75-1.04-2.23 0.12-2.93 13.75-11.24 30.05-19.01 46.9-24.37 4.45-1.12 8.88-2.34 13.44-2.96z" fill="#ffc37e"/>
 <path d="m96.35 104.59c18.53-2.24 36.68 4.2 53.17 12.01 8.06 3.86 15.7 8.63 22.71 14.18 1.45 0.8 0.12 2.12-0.58 2.87-17.29 17.83-33.71 36.5-49.16 55.94-0.71 1.35-2.5 1.66-3.66 0.69-5.8-3.86-10.02-9.59-13.65-15.43-7.67-13.01-16.78-25.27-22.69-39.24-2.05-6.34-4.59-13.41-1.87-19.95 2.71-6.27 9.32-9.75 15.73-11.07z" fill="#ffc37e"/>
 <path d="m234.08 384.21c14.43-2.42 29.75 5.77 36.03 18.94 4.7 8.88 4.4 19.56 1.04 28.83 1.39-6.91 1.27-14.53-2.33-20.78-4.92-9.38-15.68-15.19-26.22-14.25-13.66 0.87-25.37 13.32-25.08 27.07-0.47 11.49 7.43 22.55 18.29 26.15 5.55 1.78 11.68 2 17.25 0.17-8.63 3.73-18.77 3.95-27.41 0.11-8.09-3.34-14.67-9.98-18.29-17.92-3.58-8.17-3.83-17.73-0.77-26.1 4.32-11.59 15.17-20.57 27.49-22.22z" fill="#fff"/>
 <path d="m715.99 384.2c14.16-2.35 29.12 5.49 35.64 18.2 5.9 10.96 5.16 25.1-1.86 35.37-8.31 12.71-25.65 19.05-39.97 13.42 6.47 1.04 13.34 0.15 19.05-3.19 9.32-5.25 14.93-16.29 13.53-26.92-1.2-12.08-11.34-22.5-23.4-23.92-13.18-2.16-26.89 7-30.13 19.93-1.06 4.23-0.81 8.66-0.43 12.97-2.77-7.72-2.76-16.46 0.27-24.1 4.35-11.42 15.17-20.12 27.3-21.76z" fill="#fff"/>
 <path d="m242.6 396.95c10.54-0.94 21.3 4.87 26.22 14.25 3.6 6.25 3.72 13.87 2.33 20.78-2.83 8.49-9.49 15.63-18.09 18.36-5.57 1.83-11.7 1.61-17.25-0.17-10.86-3.6-18.76-14.66-18.29-26.15-0.29-13.75 11.42-26.2 25.08-27.07z" fill="#553018"/>
 <path d="m688.85 417.09c3.24-12.93 16.95-22.09 30.13-19.93 12.06 1.42 22.2 11.84 23.4 23.92 1.4 10.63-4.21 21.67-13.53 26.92-5.71 3.34-12.58 4.23-19.05 3.19-10.45-2.24-19.06-10.69-21.38-21.13-0.38-4.31-0.63-8.74 0.43-12.97z" fill="#553018"/>
 <path d="m252.32 413.36c5.37-1.85 10.84 4.35 8.35 9.42-1.63 4.56-8.43 5.82-11.55 2.11-3.66-3.43-1.83-10.55 3.2-11.53z" fill="#995c3c"/>
 <path d="m722.37 413.39c4.28-1.45 9.46 1.89 9.19 6.58 0.52 5.58-6.92 9.32-11.15 5.71-4.57-2.96-3.17-10.81 1.96-12.29z" fill="#995c3c"/>
 <path d="m950.63 423.56c0.2-0.46 0.6-1.38 0.81-1.84 0.33 4.91-2.19 9.28-4.05 13.65-7.76 16.59-18.36 31.79-30.74 45.25-18.53 20.38-40.19 37.72-63.18 52.79-26.97 18.16-55.94 33.13-85.54 46.49-37.83 16.7-76.99 30.37-116.93 41.09-3.6 0.87-7.18 1.81-10.63 3.13-5.94 0.63-11.57 2.68-17.39 3.88-44.66 10.08-90.22 17.05-136.02 18.2-5.06-1.09-10.14 1.01-15.19-0.21 1.58-0.82 3.77-1.7 3.23-3.93-0.05-18.34 0.02-36.68-0.06-55.02 17.65 2.77 35.4-8.62 42.85-24.35 2.67-5.16 3-12-0.95-16.61-5.82-7.27-15.18-10.52-24.04-12.25-6.88-1.35-13.94-1.51-20.91-0.89 1.15-0.76 3.17-1.14 3-2.91 0.26-3.22 0.11-6.44 0.15-9.65 76.19 0.49 151.73-12.88 225.48-31.05 45.57-11.23 90.54-24.7 135.48-38.18 34.47-10.01 68.65-21.53 104.1-27.69 0.45 0.43 1.36 1.28 1.82 1.71 2.89-0.56 5.79-1.1 8.71-1.61z" fill="#f5e8bb"/>
 <path d="m11.17 423.25c13.36 2.32 26.59 5.3 39.67 8.83 26.24 7.14 52.23 15.15 78.29 22.94 65.56 19.64 131.49 38.6 198.89 50.87 48.47 8.96 97.68 14.73 147.02 14.49-0.04 3.21 0.11 6.43-0.15 9.65 0.17 1.77-1.85 2.15-3 2.91-10.57 1.38-21.95 4.26-29.28 12.54-4.56 4.86-4.11 12.39-0.86 17.82 6.88 12.21 19.36 21.28 33.19 23.74 0.08 18.34 0.01 36.68 0.06 55.02 0.54 2.23-1.65 3.11-3.23 3.93-48.97-1.43-97.48-9.86-145.08-21.1-59.01-14.82-116.7-35.61-170.63-63.9-33.13-17.54-65.01-37.94-92.74-63.29-17.68-16.3-33.58-34.9-44.73-56.33-2.84-5.87-5.85-11.74-7.42-18.12z" fill="#fbeebe"/>
 <path d="m442.61 545.48c7.33-8.28 18.71-11.16 29.28-12.54 6.97-0.62 14.03-0.46 20.91 0.89 8.86 1.73 18.22 4.98 24.04 12.25 3.95 4.61 3.62 11.45 0.95 16.61-7.45 15.73-25.2 27.12-42.85 24.35-13.83-2.46-26.31-11.53-33.19-23.74-3.25-5.43-3.7-12.96 0.86-17.82z" fill="#553018"/>
 <path d="m622.98 628c5.82-1.2 11.45-3.25 17.39-3.88 2.6 7.12 5.11 14.28 7.75 21.39 1.01 0.35 2.02 0.71 3.04 1.08-0.61 0.08-1.82 0.25-2.43 0.33 10.53 32.96 20.7 66.39 23.93 101 1.95 18.77-0.61 38.14-8.43 55.4-11.33 24.25-32.26 42.75-55.52 55.29-2.78 1.3-5.56 2.74-7.71 4.99-0.25-0.11-0.74-0.35-0.98-0.46-5.88 2.82-11.93 5.27-17.96 7.74 0.32 11.07 1.68 22.1 3.44 33.04 4.15 19.39 14.87 36.4 23.56 53.97-9.21 13.7-23.95 23.45-40.11 26.74-15.05 2.96-31.15 0.63-44.51-7.02-5.45-2.8-9.93-7.01-14.68-10.8-6.37-25.64-7.75-52.26-6.23-78.55-9.38 0.55-18.75 1.27-28.15 1.26 0.53 10.78 0.5 21.58 0.26 32.37-0.55 15.77-3.01 31.4-6.51 46.76-11.98 11.67-28.27 19.36-45.16 19.2-20.5 0.83-40.86-9.51-52.89-26.01-0.48-0.87-0.85-1.77-1.09-2.72 7.57-15.1 16.34-29.77 21.43-45.96 3.26-10.75 3.89-22.05 5.04-33.16-9.67-2.14-18.8-6.03-28.18-9.07-0.22 0.57-0.66 1.7-0.88 2.27-0.06-0.79-0.18-2.36-0.25-3.15-15.99-6.94-31.27-16.19-43.44-28.81-14.18-14.44-23.79-33.29-26.89-53.31-2.11-10.82-1.8-21.9-1.29-32.85 3.34-36.45 12.79-72.01 23.45-106.93 2.41-7.81 5.09-15.52 7.71-23.26 47.6 11.24 96.11 19.67 145.08 21.1 5.05 1.22 10.13-0.88 15.19 0.21 45.8-1.15 91.36-8.12 136.02-18.2z" fill="#ff6932"/>
 <path d="m648.73 646.92c0.61-0.08 1.82-0.25 2.43-0.33 9.15 3.4 16.6 10.11 23.26 17.06 12.46 13.8 22.38 29.76 30.31 46.54 7.05 15.17 12.82 31.12 15.24 47.74 2.19 15.39-0.62 31.35-7.56 45.23-6.54 12.67-15.95 23.91-27.68 32.07 0.99 1.94 2.24 3.74 3.79 5.29 7.47 7.82 14.64 15.94 22.48 23.4-7.08 26.73-34.48 45.98-61.96 44.84-10.66 0.34-20.81-3.36-30.44-7.51-6.9-12.03-12.95-24.57-17.6-37.65 2.15-2.25 4.93-3.69 7.71-4.99 23.26-12.54 44.19-31.04 55.52-55.29 7.82-17.26 10.38-36.63 8.43-55.4-3.23-34.61-13.4-68.04-23.93-101z" fill="#fe480a"/>
 <path d="m286.04 671.03c8.92-9.98 19.19-20.44 32.94-22.88-10.66 34.92-20.11 70.48-23.45 106.93-0.51 10.95-0.82 22.03 1.29 32.85 3.1 20.02 12.71 38.87 26.89 53.31 12.17 12.62 27.45 21.87 43.44 28.81 0.07 0.79 0.19 2.36 0.25 3.15-4.23 11.22-9.71 21.91-15.39 32.46-15.91 8.85-35.67 10.42-52.77 4.17-18.56-6.52-33.55-22.11-39.48-40.86 3.11-3.3 6.19-6.63 9.21-10.02 5.01-5.8 11.07-10.67 15.42-17.05-9.62-6.61-18.74-14.2-25.37-23.91-10.36-14.03-16.18-31.51-15.42-49 0.72-16.8 6.3-32.91 12.59-48.34 7.59-17.81 17.52-34.68 29.85-49.62z" fill="#fe480a"/>
 <path d="m45.67 702.86c0.56-2.44 1.05-6.24 4.34-6.23 2.35 1.62 2.18 4.84 2.75 7.36 2.4 19.23 11.02 37.8 24.9 51.42 10.21 10.31 23.07 17.95 37 22 1.85 0.53 3.7 1.04 5.57 1.51 0.24 10.33-1.55 20.89-6.17 30.19-5.96 11.7-14.71 21.92-25.08 29.93-7.21 5.23-15.8 9.65-24.96 9.02-8.8-0.6-16.4-6.45-20.98-13.72 0.04 0.26 0.11 0.8 0.15 1.07-7.86-17.66-7.82-37.45-7.41-56.41 1.23-25.59 4.68-51.06 9.89-76.14z" fill="#fbeebe"/>
 <path d="m195.46 727.68c18.89-8.42 40.41-11.95 60.73-7.03-6.29 15.43-11.87 31.54-12.59 48.34-0.76 17.49 5.06 34.97 15.42 49 6.63 9.71 15.75 17.3 25.37 23.91-4.35 6.38-10.41 11.25-15.42 17.05-3.02 3.39-6.1 6.72-9.21 10.02-7.59 6.96-13.97 15.11-19.6 23.72-36.29 16.19-78.37 17.26-116.27 6.19-19.8-5.43-39.64-12.84-55.52-26.23-11.93-9.47-20.53-22.8-25.18-37.24-0.04-0.27-0.11-0.81-0.15-1.07 4.58 7.27 12.18 13.12 20.98 13.72 9.16 0.63 17.75-3.79 24.96-9.02 10.37-8.01 19.12-18.23 25.08-29.93 4.62-9.3 6.41-19.86 6.17-30.19-1.87-0.47-3.72-0.98-5.57-1.51 14.78-0.67 28.62-7.57 39.91-16.8 13.64-10.94 25.01-25 40.89-32.93z" fill="#ff6932"/>
 <path d="m711 863.92c12.17 11.62 23.5 25.78 26.28 42.85 1.24 10.35 0.34 21.79-6.14 30.39-7.4 9.53-18.74 15.86-30.66 17.48-11.67 2-23.68-0.28-34.62-4.46-14.93-6.02-28.43-16.07-37.62-29.36-3.72-6.25-6.73-12.91-9.64-19.57 9.63 4.15 19.78 7.85 30.44 7.51 27.48 1.14 54.88-18.11 61.96-44.84z" fill="#f1e3b0"/>
 <path d="m240.16 892.69c5.63-8.61 12.01-16.76 19.6-23.72 5.93 18.75 20.92 34.34 39.48 40.86 17.1 6.25 36.86 4.68 52.77-4.17-1.34 4.52-3.34 8.79-5.42 13.02-6.03 12.84-17.04 22.65-28.9 30.07-13.83 8.17-30.2 12.96-46.32 10.75-11.61-1.71-23.23-6.89-30.49-16.42-7.23-8.49-8.26-20.36-7.11-31.02 0.72-6.86 3.68-13.14 6.39-19.37z" fill="#f1e3b0"/>
 <path d="m609.06 957.89c8.8 15.29 15.87 33.32 12.22 51.21-1.88 7.79-5.02 15.64-10.59 21.53-10.92 10.21-27.25 13.37-41.61 10.2-13.47-2.61-25.37-10.34-35.18-19.67-7.91-8.16-14.71-17.56-18.96-28.15-3.41-8.32-3.76-17.42-5.18-26.2 4.75 3.79 9.23 8 14.68 10.8 13.36 7.65 29.46 9.98 44.51 7.02 16.16-3.29 30.9-13.04 40.11-26.74z" fill="#fbeebe"/>
 <path d="m356.83 996.01c1.38-13.14 6.99-25.37 13.16-36.89 0.24 0.95 0.61 1.85 1.09 2.72 12.03 16.5 32.39 26.84 52.89 26.01 16.89 0.16 33.18-7.53 45.16-19.2-1.54 9.78-1.88 20.05-6.38 29.08-5.47 11.71-13.34 22.4-23.48 30.5-11.22 9.43-25.49 15.72-40.28 15.98-10.85-0.31-22.13-3.49-30.24-11-9.39-9.72-13.13-23.96-11.92-37.2z" fill="#fbeebe"/>
</svg>
