<?xml version="1.0" encoding="utf-8"?>
<!-- Generator: Adobe Illustrator 18.0.0, SVG Export Plug-In . SVG Version: 6.00 Build 0)  -->
<!DOCTYPE svg PUBLIC "-//W3C//DTD SVG 1.1//EN" "http://www.w3.org/Graphics/SVG/1.1/DTD/svg11.dtd">
<svg version="1.1" id="Layer_1" xmlns="http://www.w3.org/2000/svg" xmlns:xlink="http://www.w3.org/1999/xlink" x="0px" y="0px"
	 viewBox="993.3 425.9 840.5 541.7" enable-background="new 993.3 425.9 840.5 541.7" xml:space="preserve">
<g>
	
		<g xmlns:ns1="http://sozi.baierouge.fr" xmlns:svg="http://www.w3.org/2000/svg" xmlns:sodipodi="http://sodipodi.sourceforge.net/DTD/sodipodi-0.dtd" xmlns:rdf="http://www.w3.org/1999/02/22-rdf-syntax-ns#" xmlns:dc="http://purl.org/dc/elements/1.1/" xmlns:cc="http://web.resource.org/cc/" xmlns:inkscape="http://www.inkscape.org/namespaces/inkscape">
		<path fill="#BABABA" d="M1423.3,958.6c0,4.7-3.8,8.5-8.5,8.5c-4.7,0-8.5-3.8-8.5-8.5V870c0-4.7,3.8-8.5,8.5-8.5s8.5,3.8,8.5,8.5
			V958.6L1423.3,958.6z"/>
		<path fill="#FFDFD3" d="M1377.6,426h14.7c-8,0.5-16.1,1.2-24.1,1.6C1371.3,427.2,1374.4,426.6,1377.6,426z"/>
		<path fill="#605D5E" d="M1392.3,426h47.8c37.1,1.6,74.1,8.3,108.8,21.1c34.1,12.4,65.7,30.5,94.2,52.2c18-8.8,37.1-15.3,56.2-21.4
			c19.3-5.4,38.9-10.1,58.9-12.6c10.6-1.1,21.5-2.1,32.1-0.3c5.1,0.9,10.6,2.5,13.8,6.6c4.1,5.1,4.9,11.7,5.2,17.9
			c-0.7,24.5-10.1,47.7-18.6,70.5c-3.4,6.6-6.1,13.5-9.4,20.1c-6.5,13-13.1,26.1-21.5,38.2c-1,1.1-0.6,2.3,0.3,3.3
			c18.2,23.9,35.4,48.4,52.5,73c8,11,14.6,22.9,18,35.9c4.5,15.9,3.4,32.8-1.8,48.4c-0.2,0.4-0.5,1.2-0.7,1.5
			c-2.6,0.4-5.1,0.9-7.7,1.3c-0.4-0.4-1.2-1.1-1.6-1.4c-31.1,5.2-61.1,14.8-91.4,23.2c-39.5,11.3-79,22.6-119,32
			c-64.8,15.2-131.1,26.4-198,26c-43.3,0.2-86.5-4.6-129.1-12.1c-59.2-10.3-117.1-26.1-174.7-42.6c-22.9-6.5-45.7-13.2-68.8-19.2
			c-11.5-3-23.1-5.4-34.8-7.4c-5.2-15.4-6.7-32.1-2.7-47.9c3-12.2,8.6-23.7,16-34.1c16.5-24.1,33.5-47.8,50.8-71.4
			c-6.1-4.5-9.8-11.1-13.6-17.3c-7.8-13.1-14.5-26.7-20.8-40.5c-1.9-3.9-3.3-8.1-5.4-11.9c-4.2-11.3-8.5-22.6-11.7-34.2
			c-3.4-12.2-6.2-24.8-5.1-37.4c0.8-6.7,3.5-14,10.3-17.1c8.3-3.6,17.7-3.7,26.7-3.4c26.4,1.5,52.1,7.8,77.3,15.2
			c19.9,6.4,39.7,13.4,58,23.3c29.4-23.1,62.1-42.5,97.6-55.7c28-10.6,57.6-17.1,87.5-20.2C1376.2,427.2,1384.2,426.5,1392.3,426
			L1392.3,426z"/>
		<path fill="#262525" d="M1763.5,454.4c13.5-3.2,27.3-5.7,41.3-5.8c6.2,0.5,13.7,0.5,18,5.5c4.6,5.8,3.7,13.6,3.3,20.5
			c-2.3,15.9-8,31-14.2,45.8c-6.1,13.7-12.7,27.2-21.1,39.7c8.5-22.8,17.9-46,18.6-70.5c-0.3-6.2-1.1-12.8-5.2-17.9
			c-3.3-4.1-8.8-5.7-13.8-6.6c-10.6-1.8-21.5-0.8-32.1,0.3c-20,2.5-39.6,7.2-58.9,12.6C1719.3,467.1,1741.3,459.9,1763.5,454.4z"/>
		<path fill="#262525" d="M998.8,453c3-2.7,7.3-3.6,11.2-4c6.4-0.4,12.9-0.3,19.3,0.3c19.2,2.3,37.9,7.1,56.1,13.3
			c13.7,4.7,27.3,10.2,39.6,17.8c-25.2-7.4-50.9-13.7-77.3-15.2c-9-0.3-18.4-0.2-26.7,3.4c-6.8,3-9.5,10.4-10.3,17.1
			c-1.1,12.7,1.7,25.3,5.1,37.4c3.2,11.6,7.5,22.9,11.7,34.2c-1.1-0.5-1.5-1.6-1.4-2.7c-11.4-19.7-21-40.4-27.6-62
			c-2.5-10.3-5-20.8-3.8-31.4C995.4,458.1,996.4,455.2,998.8,453L998.8,453z"/>
		<path fill="#D5CEBF" d="M994.6,461c-1.2,10.6,1.3,21.1,3.8,31.4c-3.1-6.3-3.5-13.4-5.1-20.1v-9.2
			C993.6,462.6,994.3,461.5,994.6,461L994.6,461z"/>
		<path fill="#F9A5A5" d="M1733.2,505.3c6.9-0.5,14.3-1.3,20.7,1.7c5.1,2.2,9.5,7.1,9.2,12.7c-0.4,8.8-5,16.7-9.5,24.1
			c-4.1,6.6-8.7,13-12.7,19.6c-3.6,5.5-7.7,11.1-13.8,14.3c-1,0.7-2.1,0.3-2.7-0.6c-14-16.2-28.7-31.8-44.3-46.5
			c-1-0.6-0.9-1.9,0.1-2.5c12.1-9.4,26.4-15.9,41.2-20.4C1725.3,506.9,1729.1,505.9,1733.2,505.3L1733.2,505.3z"/>
		<path fill="#F9A5A5" d="M1077.9,513.6c16.3-1.9,32.2,3.5,46.7,10c7.1,3.2,13.8,7.2,19.9,11.9c1.3,0.7,0.1,1.8-0.5,2.4
			c-15.2,14.9-29.6,30.5-43.2,46.8c-0.6,1.1-2.2,1.4-3.2,0.6c-5.1-3.2-8.8-8-12-12.9c-6.7-10.9-14.7-21.1-19.9-32.8
			c-1.8-5.3-4-11.2-1.6-16.7C1066.5,517.6,1072.3,514.7,1077.9,513.6L1077.9,513.6z"/>
		<path fill="#BABABA" d="M1828.1,780.6c0.2-0.4,0.5-1.2,0.7-1.5c0.3,4.1-1.9,7.8-3.6,11.4c-6.8,13.9-16.1,26.6-27,37.9
			c-16.3,17.1-35.3,31.6-55.5,44.2c-23.7,15.2-49.1,27.7-75.1,38.9c-33.2,14-67.6,25.4-102.7,34.4c-3.2,0.7-6.3,1.5-9.3,2.6
			c-5.2,0.5-10.2,2.2-15.3,3.2c-39.2,8.4-79.2,14.3-119.4,15.2c-4.4-0.9-8.9,0.8-13.3-0.2c1.4-0.7,3.3-1.4,2.8-3.3
			c0-15.4,0-30.7-0.1-46c15.5,2.3,31.1-7.2,37.6-20.4c2.3-4.3,2.6-10-0.8-13.9c-5.1-6.1-13.3-8.8-21.1-10.3
			c-6-1.1-12.2-1.3-18.4-0.7c1-0.6,2.8-1,2.6-2.4c0.2-2.7,0.1-5.4,0.1-8.1c66.9,0.4,133.2-10.8,198-26c40-9.4,79.5-20.7,119-32
			c30.3-8.4,60.3-18,91.4-23.2c0.4,0.4,1.2,1.1,1.6,1.4C1823,781.4,1825.5,781,1828.1,780.6L1828.1,780.6z"/>
		<path fill="#BABABA" d="M1003.1,780.3c11.7,1.9,23.3,4.4,34.8,7.4c23,6,45.9,12.7,68.8,19.2c57.6,16.4,115.5,32.3,174.7,42.6
			c42.6,7.5,85.8,12.3,129.1,12.1c0,2.7,0.1,5.4-0.1,8.1c0.1,1.5-1.6,1.8-2.6,2.4c-9.3,1.2-19.3,3.6-25.7,10.5
			c-4,4.1-3.6,10.4-0.8,14.9c6,10.2,17,17.8,29.1,19.9c0.1,15.3,0,30.7,0.1,46c0.5,1.9-1.4,2.6-2.8,3.3c-43-1.2-85.6-8.3-127.4-17.7
			c-51.8-12.4-102.5-29.8-149.8-53.5c-29.1-14.7-57.1-31.8-81.4-53c-15.5-13.6-29.5-29.2-39.3-47.1
			C1007.1,790.5,1004.5,785.6,1003.1,780.3L1003.1,780.3z"/>
		<path fill="#262525" d="M1382,882.6c6.4-6.9,16.4-9.3,25.7-10.5c6.1-0.5,12.3-0.4,18.4,0.7c7.8,1.5,16,4.2,21.1,10.3
			c3.5,3.9,3.2,9.6,0.8,13.9c-6.5,13.2-22.1,22.7-37.6,20.4c-12.1-2.1-23.1-9.7-29.1-19.9C1378.4,893,1378,886.7,1382,882.6z"/>
	</g>
	<g>
		
			<ellipse transform="matrix(-0.2783 -0.9605 0.9605 -0.2783 1352.1188 2503.7427)" fill="#262525" cx="1616.7" cy="743.9" rx="86.4" ry="197.8"/>
		
			<ellipse transform="matrix(-0.2783 0.9605 -0.9605 -0.2783 2266.1965 -213.1576)" fill="#262525" cx="1213.2" cy="744.8" rx="86.4" ry="197.8"/>
	</g>
	<path fill="#FFFFFF" d="M1214,718.2c12.7-2,26.1,4.8,31.6,15.9c4.1,7.4,3.9,16.4,0.9,24.1c1.2-5.8,1.1-12.2-2-17.4
		c-4.3-7.8-13.8-12.7-23-11.9c-12,0.7-22.3,11.1-22,22.7c-0.4,9.6,6.5,18.9,16.1,21.9c4.9,1.5,10.3,1.7,15.2,0.1
		c-7.6,3.1-16.5,3.3-24.1,0.1c-7.1-2.8-12.9-8.4-16.1-15c-3.1-6.8-3.4-14.8-0.7-21.8C1193.7,727.1,1203.2,719.6,1214,718.2
		L1214,718.2z"/>
	<path fill="#FFFFFF" d="M1637.2,718.2c12.4-2,25.6,4.6,31.3,15.2c5.2,9.2,4.5,21-1.6,29.6c-7.3,10.6-22.5,15.9-35.1,11.2
		c5.7,0.9,11.7,0.1,16.7-2.7c8.2-4.4,13.1-13.6,11.9-22.5c-1.1-10.1-10-18.8-20.6-20c-11.6-1.8-23.6,5.9-26.5,16.7
		c-0.9,3.5-0.7,7.2-0.4,10.9c-2.4-6.5-2.4-13.8,0.2-20.2C1617.1,726.8,1626.6,719.6,1637.2,718.2z"/>
	<path fill="#020202" d="M1221.5,728.9c9.3-0.8,18.7,4.1,23,11.9c3.2,5.2,3.3,11.6,2,17.4c-2.5,7.1-8.3,13.1-15.9,15.4
		c-4.9,1.5-10.3,1.4-15.2-0.1c-9.5-3-16.5-12.3-16.1-21.9C1199.2,740,1209.5,729.6,1221.5,728.9z"/>
	<path fill="#020202" d="M1613.4,745.7c2.8-10.8,14.9-18.5,26.5-16.7c10.6,1.2,19.5,9.9,20.6,20c1.2,8.9-3.7,18.1-11.9,22.5
		c-5,2.8-11.1,3.5-16.7,2.7c-9.2-1.9-16.7-8.9-18.8-17.7C1612.7,752.9,1612.5,749.2,1613.4,745.7L1613.4,745.7z"/>
	<path fill="#FFFFFF" d="M1230.1,742.6c4.7-1.5,9.5,3.6,7.3,7.9c-1.4,3.8-7.4,4.9-10.1,1.8C1224,749.4,1225.6,743.4,1230.1,742.6z"
		/>
	<path fill="#FFFFFF" d="M1642.8,742.6c3.8-1.2,8.3,1.6,8.1,5.5c0.5,4.7-6.1,7.8-9.8,4.8C1637.1,750.4,1638.3,743.8,1642.8,742.6z"
		/>
</g>
</svg>
