<?xml version="1.0" encoding="utf-8"?>
<!-- Generator: Adobe Illustrator 18.0.0, SVG Export Plug-In . SVG Version: 6.00 Build 0)  -->
<!DOCTYPE svg PUBLIC "-//W3C//DTD SVG 1.1//EN" "http://www.w3.org/Graphics/SVG/1.1/DTD/svg11.dtd">
<svg version="1.1" id="Layer_1" xmlns="http://www.w3.org/2000/svg" xmlns:xlink="http://www.w3.org/1999/xlink" x="0px" y="0px"
	 viewBox="0 0 2834.6 1984.3" enable-background="new 0 0 2834.6 1984.3" xml:space="preserve">
<path fill="#FFDFD3" d="M1339.6,0h31.7c-17.4,1-34.7,2.7-52.2,3.7C1326.1,2.7,1332.8,1.3,1339.6,0z"/>
<path fill="#FF6932" d="M1371.4,0h103.4c80.3,3.6,160.3,18.7,235.3,47.8c73.7,28.2,142.2,69.3,203.7,118.5
	c38.9-20,80.2-34.7,121.6-48.5c41.8-12.2,84.1-22.9,127.3-28.6c23-2.5,46.5-4.7,69.4-0.6c11,2.1,22.8,5.7,29.9,15
	c8.8,11.6,10.6,26.6,11.3,40.7c-1.4,55.6-21.8,108.1-40.2,159.9c-7.5,14.9-13.2,30.6-20.4,45.6c-14,29.6-28.3,59.2-46.4,86.6
	c-2.1,2.4-1.3,5.2,0.7,7.4c39.3,54.2,76.6,109.8,113.5,165.7c17.2,24.9,31.6,52,38.9,81.5c9.7,36,7.3,74.4-4,109.8
	c-0.4,0.9-1.2,2.6-1.5,3.5c-5.5,1-11.1,2-16.5,3.1c-0.9-0.8-2.6-2.4-3.5-3.2c-67.3,11.7-132.2,33.6-197.7,52.6
	c-85.3,25.6-170.7,51.2-257.2,72.5c-140,34.5-283.5,59.9-428.1,59c-93.7,0.5-187.1-10.5-279.2-27.5c-128-23.3-253.2-59.3-377.7-96.6
	c-49.5-14.8-98.8-30-148.7-43.6c-24.8-6.7-50-12.4-75.3-16.8c-11.2-34.9-14.4-72.8-5.8-108.6c6.6-27.6,18.7-53.8,34.6-77.3
	c35.6-54.6,72.5-108.5,109.8-161.9c-13.1-10.3-21.1-25.2-29.4-39.2c-16.8-29.7-31.4-60.6-45-91.9c-4-9-7.1-18.3-11.6-27.1
	c-9-25.6-18.4-51.2-25.2-77.5c-7.3-27.6-13.3-56.2-11-85c1.7-15.1,7.6-31.9,22.3-38.8c18-8.1,38.4-8.3,57.8-7.7
	c57,3.5,112.7,17.8,167.1,34.6c43,14.6,85.8,30.5,125.5,52.8c63.5-52.4,134.2-96.5,211.1-126.3c60.6-24,124.5-38.7,189.2-45.9
	C1336.6,2.7,1354,1,1371.4,0L1371.4,0z"/>
<path fill="#583D00" d="M2174,64.3c29.2-7.2,59.1-13,89.2-13.2c13.5,1.2,29.6,1.1,39,12.5c10,13.3,8.1,31,7.1,46.5
	c-5,36-17.3,70.4-30.8,104c-13.1,31-27.4,61.7-45.5,90.1c18.4-51.7,38.8-104.3,40.2-159.9c-0.6-14.1-2.4-29.1-11.3-40.7
	c-7.1-9.2-18.9-12.8-29.9-15c-23-4.1-46.4-1.9-69.4,0.6c-43.2,5.7-85.5,16.4-127.3,28.6C2078.5,93.1,2126,76.8,2174,64.3L2174,64.3z
	"/>
<path fill="#583D00" d="M520.6,61.2c6.5-6.1,15.7-8.1,24.3-9.1c13.9-0.9,27.8-0.6,41.7,0.7C628,58,668.6,69,707.9,82.9
	c29.7,10.7,59,23.1,85.6,40.3c-54.4-16.8-110.1-31.1-167.1-34.6c-19.4-0.6-39.8-0.4-57.8,7.7c-14.7,6.9-20.6,23.7-22.3,38.8
	c-2.4,28.7,3.7,57.3,11,85c6.8,26.3,16.2,51.9,25.2,77.5c-2.3-1.2-3.2-3.6-3-6.2c-24.6-44.7-45.3-91.7-59.7-140.7
	c-5.3-23.4-10.8-47.1-8.2-71.3C513.3,72.8,515.6,66,520.6,61.2z"/>
<path fill="#D5CEBF" d="M511.6,79.3c-2.7,24.2,2.9,47.9,8.2,71.3c-6.7-14.3-7.6-30.3-11.1-45.6V84.2
	C509.5,82.9,510.9,80.5,511.6,79.3L511.6,79.3z"/>
<path fill="#FFC37E" d="M2108.5,179.9c14.9-1.1,30.9-2.9,44.8,3.8c11,5.1,20.6,16.1,19.8,28.9c-0.9,19.9-10.7,37.9-20.5,54.8
	c-8.8,15.1-18.7,29.4-27.6,44.4c-7.7,12.6-16.7,25.1-29.8,32.5c-2.1,1.6-4.6,0.6-5.8-1.4c-30.2-36.7-62.1-72-95.8-105.6
	c-2.3-1.4-2-4.2,0.2-5.6c26.1-21.3,57.1-36.1,89.1-46.3C2091.4,183.4,2099.8,181.1,2108.5,179.9L2108.5,179.9z"/>
<path fill="#FFC37E" d="M691.7,198.6c35.2-4.3,69.6,8,101,22.8c15.3,7.3,29.8,16.4,43.1,26.9c2.8,1.5,0.2,4-1.1,5.4
	c-32.8,33.9-64,69.3-93.3,106.2c-1.3,2.6-4.7,3.2-6.9,1.3c-11-7.3-19-18.2-25.9-29.3c-14.6-24.7-31.9-48-43.1-74.5
	c-3.9-12-8.7-25.5-3.6-37.9C667,207.7,679.5,201.1,691.7,198.6L691.7,198.6z"/>
<path fill="#FFFFFF" d="M953.2,729.5c27.4-4.6,56.5,11,68.4,36c8.9,16.9,8.4,37.1,2,54.7c2.6-13.1,2.4-27.6-4.4-39.5
	c-9.3-17.8-29.8-28.8-49.8-27.1c-25.9,1.7-48.2,25.3-47.6,51.4c-0.9,21.8,14.1,42.8,34.7,49.7c10.5,3.4,22.2,3.8,32.8,0.3
	c-16.4,7.1-35.6,7.5-52,0.2c-15.4-6.3-27.9-19-34.7-34c-6.8-15.5-7.3-33.7-1.5-49.6C909.2,749.7,929.8,732.7,953.2,729.5
	L953.2,729.5z"/>
<path fill="#FFFFFF" d="M1868.3,729.5c26.9-4.5,55.3,10.4,67.7,34.6c11.2,20.8,9.8,47.7-3.5,67.2c-15.8,24.1-48.7,36.2-75.9,25.5
	c12.3,2,25.3,0.3,36.2-6.1c17.7-10,28.3-30.9,25.7-51.1c-2.3-22.9-21.5-42.7-44.4-45.4c-25-4.1-51.1,13.3-57.2,37.8
	c-2,8-1.5,16.4-0.8,24.6c-5.3-14.7-5.2-31.3,0.5-45.8C1824.7,749.2,1845.2,732.6,1868.3,729.5L1868.3,729.5z"/>
<path fill="#553018" d="M969.4,753.7c20-1.8,40.4,9.2,49.8,27.1c6.8,11.9,7.1,26.3,4.4,39.5c-5.4,16.1-18,29.7-34.3,34.9
	c-10.6,3.5-22.2,3.1-32.8-0.3c-20.6-6.8-35.6-27.8-34.7-49.7C921.2,779,943.5,755.4,969.4,753.7L969.4,753.7z"/>
<path fill="#553018" d="M1816.7,792c6.2-24.6,32.2-41.9,57.2-37.8c22.9,2.7,42.2,22.5,44.4,45.4c2.7,20.2-8,41.1-25.7,51.1
	c-10.8,6.3-23.9,8-36.2,6.1c-19.8-4.3-36.2-20.3-40.6-40.1C1815.2,808.4,1814.7,800,1816.7,792L1816.7,792z"/>
<path fill="#995C3C" d="M987.9,784.9c10.2-3.5,20.6,8.3,15.9,17.9c-3.1,8.7-16,11.1-21.9,4C974.8,800.3,978.3,786.8,987.9,784.9z"/>
<path fill="#995C3C" d="M1880.4,784.9c8.1-2.8,18,3.6,17.4,12.5c1,10.6-13.1,17.7-21.2,10.8C1868,802.7,1870.6,787.8,1880.4,784.9
	L1880.4,784.9z"/>
<path fill="#F5E8BB" d="M2313.8,804.3c0.4-0.9,1.1-2.6,1.5-3.5c0.6,9.3-4.2,17.6-7.7,25.9c-14.7,31.5-34.9,60.4-58.4,85.9
	c-35.2,38.7-76.3,71.6-120,100.2c-51.2,34.5-106.2,62.9-162.4,88.3c-71.8,31.7-146.2,57.7-222,78c-6.8,1.7-13.6,3.4-20.2,5.9
	c-11.3,1.2-22,5.1-33,7.4c-84.8,19.1-171.3,32.4-258.3,34.6c-9.6-2.1-19.3,1.9-28.8-0.4c3-1.6,7.2-3.2,6.1-7.5
	c-0.1-34.8,0-69.6-0.1-104.5c33.5,5.3,67.2-16.4,81.4-46.2c5.1-9.8,5.7-22.8-1.8-31.5c-11.1-13.8-28.8-20-45.6-23.3
	c-13.1-2.6-26.5-2.9-39.7-1.7c2.2-1.4,6-2.2,5.7-5.5c0.5-6.1,0.2-12.2,0.3-18.3c144.7,0.9,288.1-24.5,428.1-59
	c86.5-21.3,171.9-46.9,257.2-72.5c65.5-19,130.4-40.9,197.7-52.6c0.9,0.8,2.6,2.4,3.5,3.2C2302.8,806.3,2308.3,805.2,2313.8,804.3
	L2313.8,804.3z"/>
<path fill="#FBEEBE" d="M530,803.7c25.4,4.4,50.5,10.1,75.3,16.8c49.8,13.6,99.2,28.8,148.7,43.6c124.5,37.3,249.7,73.3,377.7,96.6
	c92,17,185.5,28,279.2,27.5c-0.1,6.1,0.2,12.2-0.3,18.3c0.3,3.4-3.5,4.1-5.7,5.5c-20.1,2.6-41.7,8.1-55.6,23.8
	c-8.7,9.2-7.8,23.5-1.6,33.8c13.1,23.2,36.8,40.4,63,45.1c0.2,34.8,0,69.6,0.1,104.5c1,4.2-3.1,5.9-6.1,7.5
	c-93-2.7-185.1-18.7-275.5-40.1c-112-28.1-221.6-67.6-324-121.3c-62.9-33.3-123.4-72-176.1-120.2c-33.6-31-63.8-66.3-84.9-107
	C538.7,826.9,532.9,815.8,530,803.7L530,803.7z"/>
<path fill="#553018" d="M1349.2,1035.8c13.9-15.7,35.5-21.2,55.6-23.8c13.2-1.2,26.6-0.9,39.7,1.7c16.8,3.3,34.6,9.5,45.6,23.3
	c7.5,8.8,6.9,21.7,1.8,31.5c-14.1,29.9-47.8,51.5-81.4,46.2c-26.3-4.7-50-21.9-63-45.1C1341.4,1059.3,1340.5,1045,1349.2,1035.8
	L1349.2,1035.8z"/>
<path fill="#FF6932" d="M1691.7,1192.4c11.1-2.3,21.7-6.2,33-7.4c4.9,13.5,9.7,27.1,14.7,40.6c1.9,0.7,3.8,1.3,5.8,2.1
	c-1.2,0.2-3.5,0.5-4.6,0.6c20,62.6,39.3,126.1,45.4,191.8c3.7,35.6-1.2,72.4-16,105.2c-21.5,46-61.3,81.2-105.4,105
	c-5.3,2.5-10.6,5.2-14.6,9.5c-0.5-0.2-1.4-0.7-1.9-0.9c-11.2,5.4-22.7,10-34.1,14.7c0.6,21,3.2,42,6.5,62.7
	c7.9,36.8,28.2,69.1,44.7,102.5c-17.5,26-45.5,44.5-76.2,50.8c-28.6,5.6-59.1,1.2-84.5-13.3c-10.3-5.3-18.9-13.3-27.9-20.5
	c-12.1-48.7-14.7-99.2-11.8-149.2c-17.8,1-35.6,2.4-53.5,2.4c1,20.5,0.9,41,0.5,61.5c-1,29.9-5.7,59.6-12.4,88.8
	c-22.7,22.2-53.7,36.8-85.8,36.5c-38.9,1.6-77.6-18.1-100.4-49.4c-0.9-1.7-1.6-3.4-2.1-5.2c14.4-28.7,31-56.5,40.7-87.3
	c6.2-20.4,7.4-41.9,9.6-63c-18.4-4.1-35.7-11.4-53.5-17.2c-0.4,1.1-1.3,3.2-1.7,4.3c-0.1-1.5-0.3-4.5-0.5-6
	c-30.4-13.2-59.4-30.7-82.5-54.7c-26.9-27.4-45.2-63.2-51.1-101.2c-4-20.5-3.4-41.6-2.4-62.4c6.3-69.2,24.3-136.7,44.5-203
	c4.6-14.8,9.7-29.5,14.6-44.2c90.4,21.3,182.5,37.3,275.5,40.1c9.6,2.3,19.2-1.7,28.8,0.4
	C1520.4,1224.8,1606.9,1211.6,1691.7,1192.4L1691.7,1192.4z"/>
<path fill="#FE480A" d="M1740.6,1228.4c1.2-0.2,3.5-0.5,4.6-0.6c17.4,6.5,31.5,19.2,44.2,32.4c23.7,26.2,42.5,56.5,57.6,88.4
	c13.4,28.8,24.3,59.1,28.9,90.6c4.2,29.2-1.2,59.5-14.4,85.9c-12.4,24.1-30.3,45.4-52.6,60.9c1.9,3.7,4.3,7.1,7.2,10
	c14.2,14.8,27.8,30.3,42.7,44.4c-13.4,50.8-65.5,87.3-117.6,85.1c-20.2,0.6-39.5-6.4-57.8-14.3c-13.1-22.8-24.6-46.7-33.4-71.5
	c4.1-4.3,9.4-7,14.6-9.5c44.2-23.8,83.9-58.9,105.4-105c14.8-32.8,19.7-69.6,16-105.2C1779.9,1354.4,1760.6,1291,1740.6,1228.4
	L1740.6,1228.4z"/>
<path fill="#FE480A" d="M1051.9,1274.2c16.9-19,36.4-38.8,62.5-43.4c-20.2,66.3-38.2,133.8-44.5,203c-1,20.8-1.6,41.8,2.4,62.4
	c5.9,38,24.1,73.8,51.1,101.2c23.1,24,52.1,41.5,82.5,54.7c0.1,1.5,0.4,4.5,0.5,6c-8,21.3-18.4,41.6-29.2,61.6
	c-30.2,16.8-67.7,19.8-100.2,7.9c-35.2-12.4-63.7-42-75-77.6c5.9-6.3,11.8-12.6,17.5-19c9.5-11,21-20.3,29.3-32.4
	c-18.3-12.6-35.6-27-48.2-45.4c-19.7-26.6-30.7-59.8-29.3-93c1.4-31.9,12-62.5,23.9-91.8C1009.6,1334.6,1028.5,1302.5,1051.9,1274.2
	L1051.9,1274.2z"/>
<path fill="#FBEEBE" d="M595.5,1334.6c1.1-4.6,2-11.8,8.2-11.8c4.5,3.1,4.1,9.2,5.2,14c4.6,36.5,20.9,71.8,47.3,97.6
	c19.4,19.6,43.8,34.1,70.3,41.8c3.5,1,7,2,10.6,2.9c0.5,19.6-2.9,39.7-11.7,57.3c-11.3,22.2-27.9,41.6-47.6,56.8
	c-13.7,9.9-30,18.3-47.4,17.1c-16.7-1.1-31.1-12.2-39.8-26.1c0.1,0.5,0.2,1.5,0.3,2c-14.9-33.5-14.8-71.1-14.1-107.1
	C579,1430.6,585.6,1382.2,595.5,1334.6L595.5,1334.6z"/>
<path fill="#FF6932" d="M879.9,1381.7c35.9-16,76.7-22.7,115.3-13.3c-11.9,29.3-22.5,59.9-23.9,91.8c-1.4,33.2,9.6,66.4,29.3,93
	c12.6,18.4,29.9,32.8,48.2,45.4c-8.3,12.1-19.8,21.4-29.3,32.4c-5.7,6.4-11.6,12.8-17.5,19c-14.4,13.2-26.5,28.7-37.2,45
	c-68.9,30.7-148.8,32.8-220.8,11.8c-37.6-10.3-75.3-24.4-105.4-49.8c-22.7-18-39-43.3-47.8-70.7c-0.1-0.5-0.2-1.5-0.3-2
	c8.7,13.8,23.1,24.9,39.8,26.1c17.4,1.2,33.7-7.2,47.4-17.1c19.7-15.2,36.3-34.6,47.6-56.8c8.8-17.7,12.2-37.7,11.7-57.3
	c-3.6-0.9-7.1-1.9-10.6-2.9c28.1-1.3,54.3-14.4,75.8-31.9C828.1,1423.5,849.7,1396.8,879.9,1381.7L879.9,1381.7z"/>
<path fill="#F1E3B0" d="M1858.8,1640.4c23.1,22.1,44.6,49,49.9,81.4c2.4,19.7,0.6,41.4-11.7,57.7c-14.1,18.1-35.6,30.1-58.2,33.2
	c-22.2,3.8-45-0.5-65.7-8.5c-28.3-11.4-54-30.5-71.4-55.7c-7.1-11.9-12.8-24.5-18.3-37.2c18.3,7.9,37.6,14.9,57.8,14.3
	C1793.3,1727.7,1845.4,1691.2,1858.8,1640.4L1858.8,1640.4z"/>
<path fill="#F1E3B0" d="M964.8,1695c10.7-16.3,22.8-31.8,37.2-45c11.3,35.6,39.7,65.2,75,77.6c32.5,11.9,70,8.9,100.2-7.9
	c-2.5,8.6-6.3,16.7-10.3,24.7c-11.4,24.4-32.4,43-54.9,57.1c-26.3,15.5-57.3,24.6-88,20.4c-22-3.2-44.1-13.1-57.9-31.2
	c-13.7-16.1-15.7-38.7-13.5-58.9C954,1718.8,959.6,1706.9,964.8,1695L964.8,1695z"/>
<path fill="#FBEEBE" d="M1665.2,1818.8c16.7,29,30.1,63.3,23.2,97.2c-3.6,14.8-9.5,29.7-20.1,40.9c-20.7,19.4-51.7,25.4-79,19.4
	c-25.6-5-48.2-19.6-66.8-37.3c-15-15.5-27.9-33.3-36-53.5c-6.5-15.8-7.1-33.1-9.8-49.7c9,7.2,17.5,15.2,27.9,20.5
	c25.4,14.5,55.9,19,84.5,13.3C1619.8,1863.4,1647.7,1844.9,1665.2,1818.8L1665.2,1818.8z"/>
<path fill="#FBEEBE" d="M1186.3,1891.2c2.6-25,13.3-48.2,25-70c0.5,1.8,1.2,3.5,2.1,5.2c22.8,31.3,61.5,51,100.4,49.4
	c32.1,0.3,63-14.3,85.8-36.5c-2.9,18.6-3.6,38.1-12.1,55.2c-10.4,22.2-25.3,42.5-44.6,57.9c-21.3,17.9-48.4,29.8-76.5,30.3
	c-20.6-0.6-42-6.6-57.4-20.9C1191.1,1943.4,1184,1916.4,1186.3,1891.2L1186.3,1891.2z"/>
</svg>
